<svg width="34" height="34" viewBox="0 0 34 34" fill="none" xmlns="http://www.w3.org/2000/svg">
<path d="M17 31.5714C24.9714 31.5714 31.5714 24.9571 31.5714 17C31.5714 9.02856 24.9571 2.42856 16.9857 2.42856C9.02857 2.42856 2.42857 9.02856 2.42857 17C2.42857 24.9571 9.04286 31.5714 17 31.5714ZM17 29.1428C10.2571 29.1428 4.87143 23.7428 4.87143 17C4.87143 10.2571 10.2429 4.85713 16.9857 4.85713C23.7286 4.85713 29.1286 10.2571 29.1429 17C29.1571 23.7428 23.7429 29.1428 17 29.1428ZM16.9857 16.5571C19.0143 16.5714 20.6571 14.8286 20.6571 12.5428C20.6571 10.4 19.0143 8.62856 16.9857 8.62856C14.9571 8.62856 13.3143 10.4 13.3143 12.5428C13.3143 14.8286 14.9571 16.5428 16.9857 16.5571ZM10.4571 24.2428H23.5143C24.0857 24.2428 24.3571 23.8571 24.3571 23.3428C24.3571 21.7714 22 17.7143 16.9857 17.7143C11.9714 17.7143 9.61428 21.7714 9.61428 23.3428C9.61428 23.8571 9.88571 24.2428 10.4571 24.2428Z" fill="white"/>
</svg>
