<svg width="28" height="28" viewBox="0 0 28 28" fill="none" xmlns="http://www.w3.org/2000/svg">
<path fill-rule="evenodd" clip-rule="evenodd" d="M20 5C21.103 5 22 5.897 22 7V9C23.103 9 24 9.897 24 11V21C24 22.103 23.103 23 22 23H7C5.794 23 4 22.201 4 20V8C4 6.346 5.346 5 7 5H20ZM20 7H7C6.74252 7.01152 6.49941 7.12191 6.32128 7.30818C6.14315 7.49446 6.04373 7.74226 6.04373 8C6.04373 8.25774 6.14315 8.50554 6.32128 8.69182C6.49941 8.87809 6.74252 8.98848 7 9H20V7ZM7.012 21H22V11H7C6.647 11 6.314 10.928 6 10.815V20C6 20.805 6.55 20.988 7.012 21ZM20 14H18V18H20V14Z" fill="currentColor"/>
</svg>
