<svg width="28" height="28" viewBox="0 0 28 28" fill="none" xmlns="http://www.w3.org/2000/svg">
<path d="M6.60477 25.7377C7.04785 26.0835 7.6098 25.9646 8.27983 25.4783L13.9967 21.2744L19.7243 25.4783C20.3943 25.9646 20.9455 26.0835 21.3994 25.7377C21.8425 25.4026 21.9397 24.8515 21.6695 24.0626L19.4109 17.3407L25.1818 13.1909C25.8518 12.7154 26.122 12.2183 25.9491 11.6779C25.7762 11.1592 25.2682 10.8998 24.4361 10.9106L17.3576 10.9539L15.207 4.19956C14.9477 3.39985 14.5586 3 13.9967 3C13.4455 3 13.0565 3.39985 12.7971 4.19956L10.6465 10.9539L3.56804 10.9106C2.73591 10.8998 2.22798 11.1592 2.05507 11.6779C1.87136 12.2183 2.15233 12.7154 2.82236 13.1909L8.59323 17.3407L6.33459 24.0626C6.06442 24.8515 6.16168 25.4026 6.60477 25.7377ZM8.16096 23.5979C8.13934 23.5763 8.15015 23.5655 8.16096 23.5006L10.3115 17.3191C10.4628 16.8976 10.3764 16.5626 9.99812 16.3033L4.6163 12.5857C4.56227 12.5533 4.55146 12.5317 4.56227 12.4992C4.57307 12.4668 4.59469 12.4668 4.65953 12.4668L11.1977 12.5857C11.6408 12.5965 11.9217 12.4128 12.0622 11.9697L13.9426 5.71252C13.9534 5.64768 13.9751 5.62607 13.9967 5.62607C14.0291 5.62607 14.0507 5.64768 14.0615 5.71252L15.9419 11.9697C16.0824 12.4128 16.3634 12.5965 16.8065 12.5857L23.3446 12.4668C23.4095 12.4668 23.4311 12.4668 23.4419 12.4992C23.4527 12.5317 23.4311 12.5533 23.3878 12.5857L18.006 16.3033C17.6278 16.5626 17.5413 16.8976 17.6926 17.3191L19.8432 23.5006C19.854 23.5655 19.8648 23.5763 19.8432 23.5979C19.8216 23.6303 19.7891 23.6087 19.7459 23.5763L14.5478 19.6102C14.202 19.34 13.8021 19.34 13.4563 19.6102L8.25822 23.5763C8.21499 23.6087 8.18257 23.6303 8.16096 23.5979Z" fill="currentColor"/>
</svg>
