<svg width="390" height="844" viewBox="0 0 390 844" fill="none" xmlns="http://www.w3.org/2000/svg">
<rect width="390" height="844" fill="url(#paint0_linear_307_4743)"/>
<mask id="mask0_307_4743" style="mask-type:alpha" maskUnits="userSpaceOnUse" x="0" y="323" width="390" height="521">
<rect y="323" width="390" height="521" fill="#C4C4C4"/>
</mask>
<g mask="url(#mask0_307_4743)">
<path fill-rule="evenodd" clip-rule="evenodd" d="M-840.395 1059.86C-773.399 1026.42 -610.33 922.886 -494.025 776.344C-394.098 650.437 -243.529 631.755 -129.869 617.653C-78.1685 611.238 -34.105 605.771 -5.91759 591.591C15.8301 580.65 44.416 553.557 79.4203 520.38C189.528 416.021 363.141 251.472 587.194 340.134C823.42 433.613 826.455 746.879 798.444 891.827C341.315 982.943 -583.215 1163.72 -624.301 1157.89C-665.388 1152.06 -785.483 1090.11 -840.395 1059.86ZM407.017 438.694L404.922 449.113C403.158 457.898 397.171 465.94 388.313 471.431C398.337 474.29 406.293 480.386 410.399 488.348L415.267 497.798L417.361 487.376C419.125 478.591 425.112 470.552 433.97 465.058C423.947 462.203 415.991 456.106 411.884 448.141L407.017 438.694ZM-360.185 859.842L-362.279 870.261C-364.044 879.046 -370.03 887.088 -378.889 892.579C-368.865 895.438 -360.909 901.534 -356.803 909.496L-351.935 918.946L-349.841 908.524C-348.076 899.739 -342.089 891.7 -333.232 886.206C-343.255 883.351 -351.211 877.254 -355.317 869.289L-360.185 859.842ZM666.991 703.775L669.086 693.357L673.953 702.803C678.06 710.769 686.016 716.865 696.039 719.72C687.182 725.215 681.195 733.254 679.43 742.038L677.336 752.461L672.468 743.01C668.362 735.049 660.406 728.952 650.382 726.093C659.24 720.603 665.227 712.56 666.991 703.775ZM73.7687 658.586L70.2564 676.059C67.2964 690.788 57.261 704.273 42.4091 713.485C59.216 718.278 72.5602 728.499 79.4405 741.855L87.6032 757.698L91.1193 740.225C94.0792 725.495 104.115 712.011 118.967 702.799C102.159 698.002 88.8149 687.781 81.9352 674.429L73.7687 658.586ZM400.413 723.01L403.926 705.537L412.092 721.38C418.972 734.732 432.316 744.953 449.123 749.75C434.271 758.962 424.236 772.447 421.276 787.176L417.76 804.649L409.597 788.806C402.717 775.45 389.373 765.229 372.566 760.436C387.418 751.224 397.453 737.739 400.413 723.01Z" fill="url(#paint1_linear_307_4743)"/>
</g>
<path fill-rule="evenodd" clip-rule="evenodd" d="M334.639 149.13C329.151 146.842 328.04 137.903 320.978 138.001C314.909 138.085 313.177 140.78 308.747 144.351C305.959 146.598 303.238 146.589 302.358 146.211C301.613 145.89 300.862 145.569 300.087 145.33C290.119 142.238 287.003 146.433 284.285 148.807C282.776 150.124 280.313 153 280.313 153L349.253 152.678C347.346 152.033 338.132 150.585 334.639 149.13Z" fill="#E6F8FE"/>
<path fill-rule="evenodd" clip-rule="evenodd" d="M84.3256 275.13C78.8378 272.842 77.727 263.903 70.6649 264.001C64.5959 264.085 62.8635 266.78 58.4341 270.351C55.646 272.598 52.9242 272.589 52.0451 272.211C51.2993 271.89 50.549 271.569 49.7738 271.33C39.806 268.238 36.6897 272.433 33.9715 274.807C32.4625 276.124 30 279 30 279L98.9399 278.678C97.0327 278.033 87.8189 276.585 84.3256 275.13Z" fill="#E6F8FE"/>
<defs>
<linearGradient id="paint0_linear_307_4743" x1="348" y1="509.488" x2="-15.6347" y2="366.242" gradientUnits="userSpaceOnUse">
<stop stop-color="#00303D"/>
<stop offset="1" stop-color="#0094BD"/>
</linearGradient>
<linearGradient id="paint1_linear_307_4743" x1="627.655" y1="708.665" x2="192.632" y2="54.3668" gradientUnits="userSpaceOnUse">
<stop stop-color="#00303D"/>
<stop offset="1" stop-color="#0094BD"/>
</linearGradient>
</defs>
</svg>
