<svg width="251" height="194" viewBox="0 0 251 194" fill="none" xmlns="http://www.w3.org/2000/svg">
<path d="M142.851 94.8602C148.477 94.8602 153.037 90.3034 153.037 84.6824C153.037 79.0614 148.477 74.5046 142.851 74.5046C137.226 74.5046 132.665 79.0614 132.665 84.6824C132.665 90.3034 137.226 94.8602 142.851 94.8602Z" fill="#EBEBF0"/>
<path d="M167.815 97.7614L157.17 87.1254C157.986 85.8573 158.539 84.4384 158.796 82.9529C159.053 81.4674 159.009 79.9455 158.667 78.4772C158.325 77.009 157.691 75.6243 156.803 74.4053C155.916 73.1863 154.792 72.1577 153.499 71.3805C151.065 69.9274 148.174 69.4408 145.397 70.017C142.621 70.5933 140.162 72.1904 138.509 74.492C136.987 76.6239 136.256 79.219 136.442 81.8311C136.627 84.4432 137.718 86.909 139.526 88.8047C141.334 90.7004 143.746 91.9075 146.348 92.2185C148.951 92.5295 151.58 91.9249 153.784 90.5088L164.429 101.145C164.878 101.593 165.487 101.845 166.122 101.845C166.756 101.844 167.365 101.592 167.814 101.144C168.263 100.695 168.515 100.087 168.515 99.4527C168.515 98.8185 168.263 98.2101 167.815 97.7614ZM153.387 86.7283C152.068 88.0462 150.333 88.8664 148.476 89.0491C146.62 89.2318 144.758 88.7658 143.207 87.7303C141.656 86.6949 140.512 85.1541 139.971 83.3706C139.429 81.5871 139.524 79.6712 140.237 77.9493C140.951 76.2274 142.24 74.806 143.885 73.9275C145.53 73.0489 147.429 72.7674 149.259 73.131C151.088 73.4946 152.735 74.4808 153.918 75.9215C155.101 77.3622 155.748 79.1683 155.748 81.0321C155.75 82.0902 155.542 83.1381 155.136 84.1156C154.731 85.0932 154.137 85.9811 153.387 86.7283Z" fill="black"/>
<path d="M244.975 113.45C272.196 143.53 193.285 186.881 129.523 186.881C65.7606 186.881 21.6471 153.292 14.0711 113.45C-4.29817 16.8466 170.581 -44.554 129.523 40.0191C69.6753 163.294 223.537 89.761 244.975 113.45Z" fill="#F2F2F7"/>
<path d="M232.761 120.569C259.982 150.65 181.071 194 117.309 194C53.5467 194 9.4332 160.411 1.85719 120.569C-16.512 23.9658 158.367 -37.4348 117.309 47.1382C57.4614 170.413 211.323 96.8801 232.761 120.569Z" fill="#C2F2FF"/>
<path d="M38.5651 50.0438C19.4637 49.2034 4.65339 45.0863 4.84796 40.6708C4.96462 38.0236 10.3705 35.8948 19.6794 34.8307C19.7127 34.8267 19.7465 34.8293 19.7788 34.8383C19.8111 34.8474 19.8413 34.8628 19.8676 34.8835C19.894 34.9043 19.916 34.9301 19.9323 34.9594C19.9486 34.9887 19.959 35.0209 19.9628 35.0542C19.9666 35.0875 19.9638 35.1213 19.9545 35.1535C19.9452 35.1857 19.9296 35.2158 19.9087 35.242C19.8877 35.2682 19.8618 35.2899 19.8323 35.3061C19.8029 35.3222 19.7706 35.3323 19.7372 35.3359C10.9682 36.3384 5.45782 38.3912 5.35638 40.6932C5.18043 44.6861 20.3984 48.7355 38.5875 49.5358C56.7766 50.336 72.2918 47.6388 72.4678 43.6458C72.5697 41.3342 67.2268 38.7983 58.5242 37.0279C58.4913 37.0214 58.4601 37.0084 58.4323 36.9897C58.4045 36.9711 58.3807 36.9471 58.3622 36.9193C58.3437 36.8914 58.3308 36.8601 58.3244 36.8273C58.318 36.7945 58.3182 36.7607 58.3249 36.7279C58.3315 36.6951 58.3446 36.664 58.3634 36.6363C58.3821 36.6085 58.4062 36.5848 58.4341 36.5664C58.4621 36.548 58.4934 36.5352 58.5262 36.5289C58.5591 36.5226 58.5929 36.5229 58.6257 36.5296C67.8628 38.4087 73.0933 41.0106 72.9762 43.6682C72.7816 48.0837 57.6665 50.8842 38.5651 50.0438Z" fill="#005066"/>
<path d="M21.6002 50.7833C23.1982 53.8165 25.5653 56.3771 28.4647 58.2091C31.3641 60.0411 34.6941 61.0801 38.1216 61.2223C41.5492 61.3644 44.9539 60.6047 47.9953 59.0191C51.0367 57.4335 53.608 55.0777 55.452 52.1873C44.1509 52.3395 32.8499 51.8708 21.6002 50.7833Z" fill="#005066"/>
<path d="M57.565 46.839C58.5267 43.9567 58.8038 40.8903 58.3744 37.8825C57.945 34.8747 56.8208 32.0081 55.0909 29.5095C53.361 27.0109 51.0728 24.9489 48.4075 23.4867C45.7421 22.0245 42.7728 21.2022 39.7344 21.085C36.696 20.9677 33.672 21.5587 30.9017 22.8112C28.1315 24.0636 25.691 25.9432 23.7734 28.301C21.8558 30.6589 20.5138 33.4304 19.8535 36.3961C19.1932 39.3619 19.2328 42.4405 19.9692 45.3883C32.3856 47.4944 45.023 47.982 57.565 46.839Z" fill="#005066"/>
<path d="M43.4608 33.7144C44.7256 33.7144 45.7509 32.6899 45.7509 31.4261C45.7509 30.1623 44.7256 29.1378 43.4608 29.1378C42.196 29.1378 41.1707 30.1623 41.1707 31.4261C41.1707 32.6899 42.196 33.7144 43.4608 33.7144Z" fill="white"/>
<path d="M31.6743 42.6109C33.7823 42.6109 35.4911 40.9034 35.4911 38.7971C35.4911 36.6908 33.7823 34.9833 31.6743 34.9833C29.5663 34.9833 27.8574 36.6908 27.8574 38.7971C27.8574 40.9034 29.5663 42.6109 31.6743 42.6109Z" fill="white"/>
<path d="M89.2809 38.875C90.6862 38.875 91.8254 37.7367 91.8254 36.3325C91.8254 34.9283 90.6862 33.79 89.2809 33.79C87.8757 33.79 86.7365 34.9283 86.7365 36.3325C86.7365 37.7367 87.8757 38.875 89.2809 38.875Z" fill="#00BEF0"/>
<path d="M31.7738 116.677C32.617 116.677 33.3006 115.994 33.3006 115.152C33.3006 114.309 32.617 113.626 31.7738 113.626C30.9306 113.626 30.2471 114.309 30.2471 115.152C30.2471 115.994 30.9306 116.677 31.7738 116.677Z" fill="#00BEF0"/>
<path d="M138.646 169.054C139.489 169.054 140.172 168.371 140.172 167.528C140.172 166.685 139.489 166.002 138.646 166.002C137.802 166.002 137.119 166.685 137.119 167.528C137.119 168.371 137.802 169.054 138.646 169.054Z" fill="#00BEF0"/>
<path d="M39.1532 87.1835C39.5748 87.1835 39.9165 86.842 39.9165 86.4207C39.9165 85.9995 39.5748 85.658 39.1532 85.658C38.7315 85.658 38.3898 85.9995 38.3898 86.4207C38.3898 86.842 38.7315 87.1835 39.1532 87.1835Z" fill="#00BEF0"/>
<path d="M102.258 144.137C102.68 144.137 103.022 143.795 103.022 143.374C103.022 142.952 102.68 142.611 102.258 142.611C101.837 142.611 101.495 142.952 101.495 143.374C101.495 143.795 101.837 144.137 102.258 144.137Z" fill="#00BEF0"/>
<path d="M217.018 136.763C217.44 136.763 217.781 136.422 217.781 136C217.781 135.579 217.44 135.238 217.018 135.238C216.596 135.238 216.255 135.579 216.255 136C216.255 136.422 216.596 136.763 217.018 136.763Z" fill="#00BEF0"/>
<path d="M181.14 159.392C181.561 159.392 181.903 159.05 181.903 158.629C181.903 158.208 181.561 157.866 181.14 157.866C180.718 157.866 180.376 158.208 180.376 158.629C180.376 159.05 180.718 159.392 181.14 159.392Z" fill="#00BEF0"/>
<path d="M143.735 131.932C144.156 131.932 144.498 131.591 144.498 131.17C144.498 130.748 144.156 130.407 143.735 130.407C143.313 130.407 142.971 130.748 142.971 131.17C142.971 131.591 143.313 131.932 143.735 131.932Z" fill="#00BEF0"/>
<path d="M95.3879 56.6729C95.8095 56.6729 96.1513 56.3314 96.1513 55.9101C96.1513 55.4888 95.8095 55.1473 95.3879 55.1473C94.9663 55.1473 94.6245 55.4888 94.6245 55.9101C94.6245 56.3314 94.9663 56.6729 95.3879 56.6729Z" fill="#00BEF0"/>
<path d="M101.495 19.0432C101.916 19.0432 102.258 18.7017 102.258 18.2804C102.258 17.8591 101.916 17.5176 101.495 17.5176C101.073 17.5176 100.731 17.8591 100.731 18.2804C100.731 18.7017 101.073 19.0432 101.495 19.0432Z" fill="#00BEF0"/>
<path d="M97.9325 177.444C98.3541 177.444 98.6958 177.102 98.6958 176.681C98.6958 176.26 98.3541 175.918 97.9325 175.918C97.5108 175.918 97.1691 176.26 97.1691 176.681C97.1691 177.102 97.5108 177.444 97.9325 177.444Z" fill="#00BEF0"/>
<path d="M60.273 161.426C60.6946 161.426 61.0364 161.084 61.0364 160.663C61.0364 160.242 60.6946 159.9 60.273 159.9C59.8514 159.9 59.5096 160.242 59.5096 160.663C59.5096 161.084 59.8514 161.426 60.273 161.426Z" fill="#00BEF0"/>
<path d="M179.613 133.966C180.035 133.966 180.376 133.625 180.376 133.204C180.376 132.782 180.035 132.441 179.613 132.441C179.191 132.441 178.85 132.782 178.85 133.204C178.85 133.625 179.191 133.966 179.613 133.966Z" fill="#00BEF0"/>
<path d="M38.2546 59.4444C39.5194 59.4444 40.5447 58.4199 40.5447 57.1561C40.5447 55.8923 39.5194 54.8678 38.2546 54.8678C36.9898 54.8678 35.9645 55.8923 35.9645 57.1561C35.9645 58.4199 36.9898 59.4444 38.2546 59.4444Z" fill="white"/>
<path d="M208.353 80.8326C208.289 80.9577 208.234 81.0876 208.19 81.2212L196.032 84.5969L193.84 82.4544L190.172 85.3359L193.682 89.5055C193.966 89.8423 194.351 90.0782 194.78 90.1776C195.209 90.277 195.659 90.2347 196.062 90.057L209.196 84.2638C209.642 84.5728 210.171 84.739 210.713 84.7402C211.256 84.7414 211.786 84.5776 212.233 84.2705C212.68 83.9634 213.022 83.5276 213.215 83.0211C213.409 82.5146 213.443 81.9614 213.313 81.435C213.184 80.9087 212.897 80.4341 212.492 80.0745C212.086 79.7149 211.58 79.4872 211.042 79.4218C210.503 79.3564 209.958 79.4564 209.477 79.7084C208.997 79.9604 208.605 80.3525 208.353 80.8326H208.353Z" fill="#FFB8B8"/>
<path d="M195.603 84.7948L191.039 88.344C190.91 88.445 190.76 88.5169 190.599 88.5547C190.439 88.5925 190.273 88.5953 190.111 88.563C189.95 88.5308 189.798 88.4641 189.664 88.3677C189.531 88.2712 189.42 88.1472 189.339 88.0041L186.503 82.9883C185.989 82.3215 185.762 81.4785 185.869 80.6441C185.977 79.8097 186.411 79.052 187.077 78.5372C187.743 78.0224 188.586 77.7926 189.422 77.898C190.257 78.0034 191.016 78.4356 191.533 79.0996L195.691 83.0644C195.81 83.178 195.903 83.3158 195.964 83.4686C196.025 83.6213 196.052 83.7854 196.043 83.9496C196.035 84.1138 195.992 84.2743 195.916 84.4202C195.84 84.566 195.733 84.6938 195.603 84.7948V84.7948Z" fill="#00BEF0"/>
<path d="M209.519 79.1537L214.147 81.2343C214.341 81.3214 214.492 81.4819 214.568 81.6804C214.643 81.879 214.637 82.0993 214.549 82.293L214.001 83.5099C214.066 83.5391 214.116 83.5926 214.141 83.6587C214.166 83.7249 214.164 83.7982 214.135 83.8628L213.916 84.3496C213.887 84.414 213.833 84.4642 213.767 84.4893C213.701 84.5144 213.628 84.5123 213.563 84.4835L213.344 84.9702C213.408 84.9995 213.459 85.053 213.484 85.1191C213.509 85.1852 213.507 85.2586 213.478 85.3232L213.259 85.8099C213.229 85.8743 213.176 85.9246 213.11 85.9496C213.044 85.9747 212.97 85.9726 212.905 85.9438L209.947 92.5153C209.859 92.709 209.699 92.8601 209.5 92.9354C209.301 93.0107 209.081 93.0041 208.887 92.917L204.259 90.8365C204.065 90.7493 203.914 90.5888 203.839 90.3903C203.763 90.1918 203.77 89.9714 203.857 89.7778L208.46 79.5554C208.547 79.3618 208.708 79.2106 208.906 79.1353C209.105 79.06 209.325 79.0666 209.519 79.1537Z" fill="black"/>
<path d="M205.099 90.1889L208.812 91.8596C208.998 91.9428 209.209 91.949 209.4 91.877C209.591 91.805 209.745 91.6606 209.83 91.4753L211.544 87.6642L212.14 86.3431L213.692 82.8949C213.775 82.7093 213.781 82.4985 213.709 82.3085C213.637 82.1185 213.492 81.9647 213.307 81.8807L212.14 81.3549L209.592 80.21C209.406 80.127 209.195 80.1211 209.004 80.1937C208.814 80.2662 208.66 80.4113 208.577 80.5969L207.076 83.9304L205.366 87.7256L204.715 89.1748C204.632 89.3603 204.625 89.5711 204.697 89.7612C204.769 89.9513 204.914 90.1051 205.099 90.1889Z" fill="#F2F2F2"/>
<path d="M197.341 137.41L200.461 137.41L201.945 125.387L197.341 125.387L197.341 137.41Z" fill="#FFB8B8"/>
<path d="M196.546 136.393L202.689 136.392H202.69C203.204 136.392 203.713 136.493 204.188 136.69C204.663 136.887 205.095 137.175 205.458 137.538C205.822 137.901 206.11 138.333 206.307 138.807C206.504 139.282 206.605 139.791 206.605 140.304V140.431L196.546 140.432L196.546 136.393Z" fill="black"/>
<path d="M205.484 136.647L208.604 136.647L210.088 124.624L205.484 124.624L205.484 136.647Z" fill="#FFB8B8"/>
<path d="M204.688 135.63L210.832 135.63H210.832C211.346 135.63 211.856 135.731 212.331 135.927C212.806 136.124 213.237 136.412 213.601 136.775C213.964 137.139 214.253 137.57 214.449 138.044C214.646 138.519 214.747 139.028 214.747 139.542V139.669L204.689 139.669L204.688 135.63Z" fill="black"/>
<path d="M183.348 109.197C184.013 111.165 185.274 112.879 186.956 114.1C188.638 115.322 190.659 115.99 192.738 116.013L192.896 116.016C194.506 116.062 196.397 115.543 198.252 114.798C201.916 113.326 205.435 110.969 206.369 110.321L204.786 125.523L204.145 131.686C204.129 131.845 204.146 132.006 204.196 132.159C204.246 132.311 204.327 132.451 204.435 132.57C204.542 132.689 204.673 132.784 204.82 132.85C204.966 132.915 205.125 132.949 205.285 132.949H209.237C209.49 132.949 209.736 132.866 209.937 132.711C210.138 132.557 210.282 132.34 210.346 132.095L216.87 107.267C217.066 106.524 217.082 105.745 216.916 104.994C216.751 104.244 216.409 103.544 215.919 102.952C215.429 102.36 214.804 101.893 214.098 101.589C213.391 101.286 212.622 101.155 211.855 101.208L198.303 102.136L199.249 98.3529L187.153 97.5494L187.117 97.5749C186.827 97.7859 186.544 98.0071 186.275 98.2385C185.6 98.8084 185.002 99.463 184.496 100.186C183.59 101.483 183.012 102.981 182.812 104.55C182.613 106.12 182.797 107.714 183.348 109.197Z" fill="black"/>
<path d="M183.348 109.197C184.013 111.166 185.274 112.879 186.956 114.1C188.638 115.322 190.659 115.99 192.738 116.014C194.726 115.008 196.645 113.871 198.481 112.609L198.252 114.798L196.257 133.974C196.241 134.133 196.258 134.295 196.308 134.447C196.358 134.599 196.439 134.739 196.547 134.858C196.654 134.977 196.785 135.073 196.932 135.138C197.078 135.203 197.237 135.237 197.397 135.238H201.349C201.602 135.238 201.848 135.154 202.049 135C202.25 134.845 202.394 134.628 202.458 134.383L204.786 125.523L208.982 109.555C209.178 108.812 209.194 108.033 209.028 107.283C208.863 106.532 208.521 105.832 208.031 105.24C207.541 104.648 206.916 104.181 206.21 103.878C205.503 103.575 204.734 103.444 203.967 103.497L190.415 104.425L191.361 100.641L184.496 100.186C183.59 101.484 183.012 102.981 182.812 104.55C182.613 106.12 182.797 107.714 183.348 109.197Z" fill="black"/>
<path d="M186.257 99.1157L186.166 99.1047L184.056 88.7349C184.038 88.6449 182.312 79.7004 187.602 75.0244L187.694 74.3844C187.718 74.2206 187.776 74.0639 187.866 73.925C187.957 73.7862 188.076 73.6685 188.216 73.5801C188.356 73.4917 188.513 73.4347 188.677 73.413C188.841 73.3913 189.008 73.4054 189.167 73.4544L194.15 74.9989C194.432 75.0858 194.67 75.2783 194.813 75.5362C194.956 75.7941 194.994 76.0974 194.918 76.3826L194.434 78.2238C195.106 79.012 203.013 88.5242 200.258 95.8527L199.025 100.671L186.257 99.1157Z" fill="#00BEF0"/>
<path d="M206.95 91.0224C206.831 91.0973 206.718 91.1815 206.612 91.2742L194.424 88.005L193.627 85.047L189.002 85.6651L189.904 91.0386C189.976 91.4727 190.188 91.8715 190.507 92.1751C190.826 92.4787 191.235 92.6707 191.672 92.7224L205.93 94.4053C206.157 94.8978 206.528 95.3097 206.994 95.5862C207.461 95.8628 208 95.9909 208.542 95.9534C209.083 95.916 209.6 95.7149 210.023 95.3768C210.447 95.0387 210.758 94.5796 210.915 94.0607C211.071 93.5417 211.066 92.9875 210.899 92.4717C210.733 91.9558 210.413 91.5029 209.983 91.1731C209.552 90.8432 209.032 90.6521 208.49 90.6252C207.948 90.5983 207.411 90.7368 206.95 91.0224H206.95Z" fill="#FFB8B8"/>
<path d="M193.954 87.9578L188.219 88.6961C188.055 88.7171 187.89 88.7027 187.732 88.6539C187.575 88.6051 187.431 88.523 187.308 88.4133C187.185 88.3035 187.088 88.1687 187.022 88.0179C186.957 87.8672 186.924 87.7041 186.927 87.5397L187.037 81.7796C186.934 80.9447 187.167 80.103 187.684 79.4393C188.201 78.7755 188.961 78.3438 189.796 78.2387C190.631 78.1337 191.474 78.364 192.14 78.879C192.806 79.394 193.24 80.1518 193.347 80.9862L194.91 86.5122C194.955 86.6705 194.965 86.8365 194.939 86.9989C194.914 87.1614 194.854 87.3165 194.763 87.4537C194.673 87.5909 194.554 87.7069 194.414 87.7939C194.274 87.8809 194.118 87.9368 193.954 87.9578Z" fill="#00BEF0"/>
<path d="M192.34 72.0469C195.791 72.0469 198.59 69.251 198.59 65.8021C198.59 62.3532 195.791 59.5574 192.34 59.5574C188.888 59.5574 186.09 62.3532 186.09 65.8021C186.09 69.251 188.888 72.0469 192.34 72.0469Z" fill="#FFB8B8"/>
<path d="M192.011 66.3236L191.229 64.8999C189.746 70.9339 192.364 75.9277 192.364 75.9277L182.203 71.1983L182.3 69.5203L181.295 70.6603L179.85 69.8648L179.659 68.7765L178.569 69.0464L182.549 61.8288C186.413 54.9605 192.029 57.5828 192.029 57.5828C200.964 57.1583 199.873 65.9669 199.873 65.9669L192.011 66.3236Z" fill="black"/>
</svg>
